<?xml version="1.0" encoding="UTF-8" standalone="no"?>
<!-- Created with Inkscape (http://www.inkscape.org/) -->

<svg
   version="1.1"
   id="svg2"
   width="426.66666"
   height="160.89333"
   viewBox="0 0 426.66666 160.89333"
   sodipodi:docname="luomus_en_blue.eps"
   xmlns:inkscape="http://www.inkscape.org/namespaces/inkscape"
   xmlns:sodipodi="http://sodipodi.sourceforge.net/DTD/sodipodi-0.dtd"
   xmlns="http://www.w3.org/2000/svg"
   xmlns:svg="http://www.w3.org/2000/svg">
  <defs
     id="defs6" />
  <sodipodi:namedview
     id="namedview4"
     pagecolor="#ffffff"
     bordercolor="#000000"
     borderopacity="0.25"
     inkscape:showpageshadow="2"
     inkscape:pageopacity="0.0"
     inkscape:pagecheckerboard="0"
     inkscape:deskcolor="#d1d1d1" />
  <g
     id="g8"
     inkscape:groupmode="layer"
     inkscape:label="ink_ext_XXXXXX"
     transform="matrix(1.3333333,0,0,-1.3333333,0,160.89333)">
    <g
       id="g10"
       transform="scale(0.1)">
      <path
         d="m 1608.02,711.07 v 10.102 C 1608.02,897.105 1498.66,1020 1342.18,1020 1186.55,1020 1075.5,896.262 1075.5,719.48 v -10.089 c 0,-175.93 109.37,-298.84 265.84,-298.84 155.63,0 266.68,124.59 266.68,300.519 z m -126.19,0.84 c 0,-116.164 -58.05,-188.566 -139.65,-188.566 -81.6,0 -141.33,73.25 -141.33,189.414 v 5.887 c 0,116.164 58.05,188.562 140.49,188.562 81.6,0 140.49,-73.238 140.49,-189.402 v -5.895 z m 1306.11,143.11 c 0,31.148 26.07,52.191 68.14,52.191 45.43,0 88.32,-24.414 125.36,-54.723 l 68.12,92.602 c -53.83,48.828 -121.13,72.39 -190.12,72.39 -113.57,0 -192.63,-69.863 -192.63,-172.558 v -1.692 c 0,-101.011 64.76,-140.578 169.08,-180.98 84.12,-31.984 100.96,-50.508 100.96,-79.977 0,-35.355 -28.62,-58.91 -75.73,-58.91 -58.88,0 -106.83,31.973 -146.36,66.496 l -72.35,-90.07 c 64.77,-60.605 143.01,-86.707 217.87,-86.707 114.42,0 197.7,67.332 197.7,176.777 v 1.68 c 0,91.754 -55.53,135.531 -158.15,175.934 -91.7,37.882 -111.89,53.875 -111.89,87.547 z M 2639.74,652.148 V 1009.91 H 2518.6 V 646.262 c 0,-81.657 -39.55,-122.059 -102.63,-122.059 -63.09,0 -102.64,41.242 -102.64,124.574 V 1009.91 H 2191.36 V 649.617 c 0,-159.086 87.5,-238.215 222.93,-238.215 136.29,0 225.45,78.289 225.45,240.746 z m -607.48,-231.48 h 119.45 V 1009.91 H 2023 L 1893.45,770.84 1762.22,1009.91 H 1634.35 V 420.668 h 118.61 v 374.586 l 137.97,-241.598 h 2.52 l 138.81,243.282 v -376.27 z m -983.09,231.48 V 1009.91 H 928.031 V 646.262 c 0,-81.657 -39.523,-122.059 -102.633,-122.059 -63.089,0 -102.625,41.242 -102.625,124.574 V 1009.91 H 600.793 V 649.617 c 0,-159.086 87.488,-238.215 222.93,-238.215 136.281,0 225.447,78.289 225.447,240.746 z M 223.328,420.668 H 583.379 V 532.621 H 345.313 V 1009.91 H 223.328 v -589.242 0"
         style="fill:#0f80cc;fill-opacity:1;fill-rule:nonzero;stroke:none"
         id="path12" />
      <g
         id="g14"
         transform="scale(10)">
        <text
           xml:space="preserve"
           transform="matrix(1,0,0,-1,21,21.1422)"
           style="font-variant:normal;font-weight:bold;font-size:15.5px;font-family:GothamNarrow;-inkscape-font-specification:GothamNarrow-Bold;writing-mode:lr-tb;fill:#0f80cc;fill-opacity:1;fill-rule:nonzero;stroke:none"
           id="text18"><tspan
             x="0 8.7109413 13.407229 24.11763 34.828026 39.524323 48.173248 58.527248 62.123436 73.949638 84.226036 92.874474 101.81784 112.09425 123.92043 127.51663 138.84724 147.55818 151.15437 161.86528 171.32036 179.99905 190.27547 200.11823 210.68954 218.95126 222.54697 232.90045 237.59674 246.01276 254.27446 265.60458 275.07526"
             y="0"
             sodipodi:role="line"
             id="tspan16">FINNISH MUSEUM OF NATURAL HISTORY</tspan></text>
      </g>
    </g>
  </g>
</svg>
