<?xml version="1.0" encoding="UTF-8"?>
<svg version="1.1" xmlns="http://www.w3.org/2000/svg" width="320" height="121">
<path d="M0 0 C105.6 0 211.2 0 320 0 C320 39.93 320 79.86 320 121 C214.4 121 108.8 121 0 121 C0 81.07 0 41.14 0 0 Z " fill="#FCFEFE" transform="translate(0,0)"/>
<path d="M0 0 C6.86530723 4.02914752 11.09069291 9.46440695 13.8046875 16.93359375 C16.35544816 27.953453 14.97213301 38.20474828 9.33203125 47.95703125 C5.41036319 53.98548539 0.37098271 56.97077535 -6.5 58.9375 C-15.59591064 59.90803141 -22.22812102 59.12463021 -29.3984375 53.4296875 C-36.09740836 47.35256204 -39.09269375 39.83542849 -39.62109375 30.88671875 C-39.88637707 21.85148106 -38.27205853 14.07280853 -32.5 6.9375 C-23.57334224 -2.24213996 -12.24941216 -5.65071517 0 0 Z " fill="#06A7FA" transform="translate(146.5,21.0625)"/>
<path d="M0 0 C4.62 0 9.24 0 14 0 C17.96 7.26 21.92 14.52 26 22 C30.07951687 15.33104267 30.07951687 15.33104267 33.66015625 8.3984375 C34.12292969 7.40070312 34.58570313 6.40296875 35.0625 5.375 C35.72958984 3.83972656 35.72958984 3.83972656 36.41015625 2.2734375 C39 0 39 0 52 0 C52 19.47 52 38.94 52 59 C48.04 59 44.08 59 40 59 C39.67 47.78 39.34 36.56 39 25 C35.04 31.93 31.08 38.86 27 46 C24.07828951 43.07828951 22.4968052 41.49417418 20.640625 38.109375 C20.28516602 37.46967773 19.92970703 36.82998047 19.56347656 36.17089844 C19.1300293 35.37200195 18.69658203 34.57310547 18.25 33.75 C16.8475 31.1925 15.445 28.635 14 26 C13.67 36.89 13.34 47.78 13 59 C8.71 59 4.42 59 0 59 C0 39.53 0 20.06 0 0 Z " fill="#05A7FA" transform="translate(163,20)"/>
<path d="M0 0 C4.29 0 8.58 0 13 0 C13.01981934 1.25135742 13.03963867 2.50271484 13.06005859 3.79199219 C13.13615293 8.436402 13.22486463 13.08050008 13.31738281 17.72460938 C13.35565669 19.73431238 13.39051236 21.74408351 13.421875 23.75390625 C13.46755991 26.6434768 13.52554887 29.53257896 13.5859375 32.421875 C13.59748871 33.31992859 13.60903992 34.21798218 13.62094116 35.14324951 C13.64081085 35.98381897 13.66068054 36.82438843 13.68115234 37.69042969 C13.69447601 38.42767273 13.70779968 39.16491577 13.7215271 39.92449951 C14.04356236 42.32467683 14.73251435 43.94330668 16 46 C19.45031261 47.72515631 23.22716304 47.49677924 27 47 C30.03215675 44.80168636 30.81654398 43.55036806 32 40 C32.11235161 38.66548737 32.17575649 37.32645611 32.20532227 35.98754883 C32.22526749 35.18694534 32.24521271 34.38634186 32.26576233 33.56147766 C32.28247482 32.70201035 32.29918732 31.84254303 32.31640625 30.95703125 C32.33718735 30.0734343 32.35796844 29.18983734 32.37937927 28.27946472 C32.44475754 25.45722215 32.50370528 22.63488665 32.5625 19.8125 C32.60569637 17.89907894 32.64931102 15.98566727 32.69335938 14.07226562 C32.80042695 9.38160563 32.90172752 4.69085217 33 0 C36.96 0 40.92 0 45 0 C45.07448767 5.97734898 45.1287615 11.95442418 45.16479492 17.93212891 C45.17982599 19.9631013 45.20025647 21.99404154 45.22631836 24.02490234 C45.26295232 26.95418259 45.27978351 29.88303144 45.29296875 32.8125 C45.30845261 33.71178223 45.32393646 34.61106445 45.33988953 35.53759766 C45.34163377 42.15982421 44.50019315 47.94006211 40.16796875 53.2421875 C33.25513167 58.94152852 27.95826173 60.49772952 18.96875 60.30859375 C12.01336663 59.58559995 7.70566026 56.24144605 3.2265625 51.07421875 C-0.3102845 45.09311761 -0.27416416 38.87064613 -0.1953125 32.12890625 C-0.1924826 31.206577 -0.18965271 30.28424774 -0.18673706 29.33396912 C-0.17560974 26.41000987 -0.15051912 23.48636549 -0.125 20.5625 C-0.11496057 18.57096799 -0.1058364 16.57943114 -0.09765625 14.58789062 C-0.07569483 9.7251405 -0.04121673 4.8626235 0 0 Z " fill="#05A6FA" transform="translate(60,20)"/>
<path d="M0 0 C4.29 0 8.58 0 13 0 C13.01981934 1.25135742 13.03963867 2.50271484 13.06005859 3.79199219 C13.13615293 8.436402 13.22486463 13.08050008 13.31738281 17.72460938 C13.35565669 19.73431238 13.39051236 21.74408351 13.421875 23.75390625 C13.46755991 26.6434768 13.52554887 29.53257896 13.5859375 32.421875 C13.59748871 33.31992859 13.60903992 34.21798218 13.62094116 35.14324951 C13.64081085 35.98381897 13.66068054 36.82438843 13.68115234 37.69042969 C13.69447601 38.42767273 13.70779968 39.16491577 13.7215271 39.92449951 C14.04356236 42.32467683 14.73251435 43.94330668 16 46 C18.3396669 47.16983345 19.83391527 47.1661241 22.4375 47.1875 C23.21996094 47.20167969 24.00242188 47.21585938 24.80859375 47.23046875 C27.29205987 47.14086064 27.29205987 47.14086064 30 45 C31.74676458 42.21523933 32.25845356 40.04350782 32.31884766 36.78222656 C32.33871735 35.96167786 32.35858704 35.14112915 32.37905884 34.29571533 C32.39638565 32.98144562 32.39638565 32.98144562 32.4140625 31.640625 C32.43342865 30.73624695 32.4527948 29.8318689 32.4727478 28.90008545 C32.53243831 26.01681901 32.57888686 23.13351242 32.625 20.25 C32.66318947 18.29295152 32.70224177 16.33591967 32.7421875 14.37890625 C32.83813125 9.58607289 32.92220127 4.79316085 33 0 C36.96 0 40.92 0 45 0 C45.0994253 5.95901714 45.17173064 11.91754355 45.21972656 17.87719727 C45.2397503 19.90137146 45.26697767 21.92548847 45.30175781 23.94946289 C45.35068462 26.87140065 45.3730615 29.7925688 45.390625 32.71484375 C45.41127014 33.60896469 45.43191528 34.50308563 45.45318604 35.42430115 C45.4556256 42.37026092 44.04642551 48.57588935 39.32281494 53.88511658 C33.38430184 59.52247062 26.6743319 60.49404266 18.7109375 60.30859375 C11.97132224 59.54140412 7.62066056 56.13057784 3.2265625 51.171875 C-0.26879327 44.98264631 -0.27863945 38.15613796 -0.1953125 31.25 C-0.1924826 30.35128174 -0.18965271 29.45256348 -0.18673706 28.52661133 C-0.17563125 25.68426635 -0.15054505 22.84224814 -0.125 20 C-0.11495777 18.0612025 -0.10583411 16.12240001 -0.09765625 14.18359375 C-0.07572345 9.45560518 -0.04126084 4.7278578 0 0 Z " fill="#05A6FA" transform="translate(219,20)"/>
<path d="M0 0 C2.5625 2.25 2.5625 2.25 4 4 C2.02 6.97 0.04 9.94 -2 13 C-4.08333333 11.95833333 -6.16666667 10.91666667 -8.25 9.875 C-12.34173919 8.57308299 -17.05438618 8.02719309 -21 10 C-21.67154684 12.28341743 -21.67154684 12.28341743 -21 15 C-16.99696833 18.6349368 -11.64048679 20.64584743 -6.8125 22.9375 C-1.15915097 25.69993191 2.15053238 28.30106477 5 34 C5.79659824 40.1224265 5.40528116 45.15469491 1.734375 50.23828125 C-2.9720031 55.01885901 -8.73195662 57.2602086 -15.375 57.625 C-23.29179492 57.25337236 -30.86266237 53.94759369 -37 49 C-35.33248852 45.05860922 -32.77289351 42.2107188 -30 39 C-29.38253906 39.3609375 -28.76507813 39.721875 -28.12890625 40.09375 C-22.30111633 43.28705955 -17.67537523 45.00706092 -11 44 C-10.01 43.505 -10.01 43.505 -9 43 C-9 41.02 -9 39.04 -9 37 C-10.0621875 36.50371094 -11.124375 36.00742187 -12.21875 35.49609375 C-28.04820388 27.94516556 -28.04820388 27.94516556 -33 22 C-34.78843932 16.63468204 -35.28634579 10.05840721 -33.05859375 4.76171875 C-25.46510188 -6.35477249 -10.79927833 -6.63192196 0 0 Z " fill="#07A7FA" transform="translate(301,23)"/>
<path d="M0 0 C4.29 0 8.58 0 13 0 C13 15.51 13 31.02 13 47 C20.59 47 28.18 47 36 47 C38.83823106 49.83823106 37 54.98613514 37 59 C24.79 59 12.58 59 0 59 C0 39.53 0 20.06 0 0 Z " fill="#0AA8FA" transform="translate(22,20)"/>
<path d="M0 0 C3.50407768 1.72643493 5.54812122 4.39749496 7.875 7.5 C10.13557915 14.53291292 10.11583903 22.17950497 7.3125 29.0625 C5.39436998 32.67309769 3.74589717 35.12705142 0 37 C-4.7078438 37.73802832 -8.57791318 37.71104341 -12.875 35.5625 C-17.90726158 29.49418456 -19.65692442 23.49841801 -19.31640625 15.64453125 C-18.63879519 9.98104132 -17.15063052 6.34707963 -13.4375 2 C-8.83902903 -0.67547402 -5.20116764 -1.04869071 0 0 Z " fill="#FAFDFE" transform="translate(139,31)"/>
<path d="M0 0 C2.5625 0.375 2.5625 0.375 4.4375 2.0625 C5.86374388 4.99422354 5.60480389 6.32826554 4.5625 9.375 C2.5625 11.375 2.5625 11.375 0.0625 11.625 C-2.4375 11.375 -2.4375 11.375 -4.4375 9.375 C-4.6875 5.875 -4.6875 5.875 -4.4375 2.375 C-2.4375 0.375 -2.4375 0.375 0 0 Z " fill="#0BA9FA" transform="translate(280.4375,88.625)"/>
<path d="M0 0 C2.5625 0.375 2.5625 0.375 4.4375 2.0625 C5.86374388 4.99422354 5.60480389 6.32826554 4.5625 9.375 C2.5625 11.375 2.5625 11.375 0.0625 11.625 C-2.4375 11.375 -2.4375 11.375 -4.4375 9.375 C-4.6875 5.875 -4.6875 5.875 -4.4375 2.375 C-2.4375 0.375 -2.4375 0.375 0 0 Z " fill="#0BA9FA" transform="translate(153.4375,88.625)"/>
<path d="M0 0 C4.62 0 9.24 0 14 0 C14 0.66 14 1.32 14 2 C13.01 2 12.02 2 11 2 C11 4.97 11 7.94 11 11 C10.34 11 9.68 11 9 11 C9 8.03 9 5.06 9 2 C7.8553125 2.2784375 7.8553125 2.2784375 6.6875 2.5625 C4 3 4 3 1 2 C1 2.66 1 3.32 1 4 C3.475 4.99 3.475 4.99 6 6 C5.67 7.65 5.34 9.3 5 11 C3.35 11 1.7 11 0 11 C0 10.01 0 9.02 0 8 C0.99 8.33 1.98 8.66 3 9 C3 8.34 3 7.68 3 7 C1.68 6.34 0.36 5.68 -1 5 C-0.67 3.35 -0.34 1.7 0 0 Z " fill="#25B1FA" transform="translate(261,89)"/>
<path d="M0 0 C0.99 0 1.98 0 3 0 C3.66 0.99 4.32 1.98 5 3 C5.66 2.01 6.32 1.02 7 0 C7.99 0 8.98 0 10 0 C10 3.63 10 7.26 10 11 C9.01 11 8.02 11 7 11 C6.67 9.68 6.34 8.36 6 7 C5.01 7.495 5.01 7.495 4 8 C3.67 7.34 3.34 6.68 3 6 C2.67 7.65 2.34 9.3 2 11 C1.34 11 0.68 11 0 11 C0 7.37 0 3.74 0 0 Z " fill="#32B6FA" transform="translate(134,89)"/>
<path d="M0 0 C0.99 0 1.98 0 3 0 C3.66 0.99 4.32 1.98 5 3 C5.66 2.01 6.32 1.02 7 0 C7.99 0 8.98 0 10 0 C10 3.63 10 7.26 10 11 C9.01 11 8.02 11 7 11 C6.67 9.68 6.34 8.36 6 7 C5.01 7.495 5.01 7.495 4 8 C3.67 7.34 3.34 6.68 3 6 C2.67 7.65 2.34 9.3 2 11 C1.34 11 0.68 11 0 11 C0 7.37 0 3.74 0 0 Z " fill="#32B6FA" transform="translate(84,89)"/>
<path d="M0 0 C4 2 4 2 5 4 C5.33 2.68 5.66 1.36 6 0 C6.99 0 7.98 0 9 0 C9 3.63 9 7.26 9 11 C8.01 11 7.02 11 6 11 C4.3125 8.5 4.3125 8.5 3 6 C2.67 7.65 2.34 9.3 2 11 C1.34 11 0.68 11 0 11 C0 7.37 0 3.74 0 0 Z " fill="#35B7FA" transform="translate(173,89)"/>
<path d="M0 0 C4 2 4 2 5 4 C5.33 2.68 5.66 1.36 6 0 C6.99 0 7.98 0 9 0 C9 3.63 9 7.26 9 11 C8.01 11 7.02 11 6 11 C4.3125 8.5 4.3125 8.5 3 6 C2.67 7.65 2.34 9.3 2 11 C1.34 11 0.68 11 0 11 C0 7.37 0 3.74 0 0 Z " fill="#35B7FA" transform="translate(46,89)"/>
<path d="M0 0 C4 2 4 2 5 4 C5.33 2.68 5.66 1.36 6 0 C6.99 0 7.98 0 9 0 C9 3.63 9 7.26 9 11 C8.01 11 7.02 11 6 11 C4.3125 8.5 4.3125 8.5 3 6 C2.67 7.65 2.34 9.3 2 11 C1.34 11 0.68 11 0 11 C0 7.37 0 3.74 0 0 Z " fill="#35B7FA" transform="translate(35,89)"/>
<path d="M0 0 C2.875 -0.125 2.875 -0.125 6 0 C6.66 0.66 7.32 1.32 8 2 C7.70131344 4.00546689 7.36628677 6.00577205 7 8 C7.33 8.99 7.66 9.98 8 11 C7.01 11 6.02 11 5 11 C4.67 9.68 4.34 8.36 4 7 C3.34 7 2.68 7 2 7 C2 8.32 2 9.64 2 11 C1.34 11 0.68 11 0 11 C0 7.37 0 3.74 0 0 Z " fill="#0EA9FA" transform="translate(288,89)"/>
<path d="M0 0 C2.875 -0.125 2.875 -0.125 6 0 C6.66 0.66 7.32 1.32 8 2 C7.70131344 4.00546689 7.36628677 6.00577205 7 8 C7.33 8.99 7.66 9.98 8 11 C7.01 11 6.02 11 5 11 C4.67 9.68 4.34 8.36 4 7 C3.34 7 2.68 7 2 7 C2 8.32 2 9.64 2 11 C1.34 11 0.68 11 0 11 C0 7.37 0 3.74 0 0 Z " fill="#0EA9FA" transform="translate(212,89)"/>
<path d="M0 0 C0.99 0.33 1.98 0.66 3 1 C3.94921875 3.28515625 3.94921875 3.28515625 4.6875 6.0625 C5.06455078 7.44115234 5.06455078 7.44115234 5.44921875 8.84765625 C5.63097656 9.55792969 5.81273437 10.26820312 6 11 C5.01 11 4.02 11 3 11 C3 10.34 3 9.68 3 9 C1.68 9 0.36 9 -1 9 C-1 9.66 -1 10.32 -1 11 C-1.99 10.67 -2.98 10.34 -4 10 C-2.68 6.7 -1.36 3.4 0 0 Z " fill="#20B0FA" transform="translate(225,89)"/>
<path d="M0 0 C0.99 0.33 1.98 0.66 3 1 C3.94921875 3.28515625 3.94921875 3.28515625 4.6875 6.0625 C5.06455078 7.44115234 5.06455078 7.44115234 5.44921875 8.84765625 C5.63097656 9.55792969 5.81273437 10.26820312 6 11 C5.01 11 4.02 11 3 11 C3 10.34 3 9.68 3 9 C1.68 9 0.36 9 -1 9 C-1 9.66 -1 10.32 -1 11 C-1.99 10.67 -2.98 10.34 -4 10 C-2.68 6.7 -1.36 3.4 0 0 Z " fill="#20B0FA" transform="translate(187,89)"/>
<path d="M0 0 C0.66 0 1.32 0 2 0 C2 1.32 2 2.64 2 4 C3.32 4 4.64 4 6 4 C6 2.68 6 1.36 6 0 C6.66 0 7.32 0 8 0 C8 3.63 8 7.26 8 11 C7.34 11 6.68 11 6 11 C6 9.35 6 7.7 6 6 C4.68 6 3.36 6 2 6 C2 7.65 2 9.3 2 11 C1.34 11 0.68 11 0 11 C0 7.37 0 3.74 0 0 Z " fill="#15ACFA" transform="translate(244,89)"/>
<path d="M0 0 C0.66 0 1.32 0 2 0 C2 1.32 2 2.64 2 4 C3.32 4 4.64 4 6 4 C6 2.68 6 1.36 6 0 C6.66 0 7.32 0 8 0 C8 3.63 8 7.26 8 11 C7.34 11 6.68 11 6 11 C6 9.35 6 7.7 6 6 C4.68 6 3.36 6 2 6 C2 7.65 2 9.3 2 11 C1.34 11 0.68 11 0 11 C0 7.37 0 3.74 0 0 Z " fill="#15ACFA" transform="translate(70,89)"/>
<path d="M0 0 C1.65 0 3.3 0 5 0 C5 0.99 5 1.98 5 3 C3.68 2.67 2.36 2.34 1 2 C1 2.66 1 3.32 1 4 C3.475 4.99 3.475 4.99 6 6 C5.67 7.65 5.34 9.3 5 11 C3.35 11 1.7 11 0 11 C0 10.01 0 9.02 0 8 C0.99 8.33 1.98 8.66 3 9 C3 8.34 3 7.68 3 7 C1.68 6.34 0.36 5.68 -1 5 C-0.67 3.35 -0.34 1.7 0 0 Z " fill="#24B1FA" transform="translate(107,89)"/>
<path d="M0 0 C1.65 0 3.3 0 5 0 C5 0.99 5 1.98 5 3 C3.68 2.67 2.36 2.34 1 2 C1 2.66 1 3.32 1 4 C3.475 4.99 3.475 4.99 6 6 C5.67 7.65 5.34 9.3 5 11 C3.35 11 1.7 11 0 11 C0 10.01 0 9.02 0 8 C0.99 8.33 1.98 8.66 3 9 C3 8.34 3 7.68 3 7 C1.68 6.34 0.36 5.68 -1 5 C-0.67 3.35 -0.34 1.7 0 0 Z " fill="#24B1FA" transform="translate(63,89)"/>
<path d="M0 0 C0.66 0 1.32 0 2 0 C2.33 2.64 2.66 5.28 3 8 C3.66 8 4.32 8 5 8 C5.33 5.36 5.66 2.72 6 0 C6.66 0 7.32 0 8 0 C8.02688151 1.64574566 8.04634123 3.29161413 8.0625 4.9375 C8.07410156 5.85402344 8.08570313 6.77054687 8.09765625 7.71484375 C8 10 8 10 7 11 C4.5625 11.1875 4.5625 11.1875 2 11 C0 9 0 9 -0.1953125 6.8359375 C-0.17210937 6.02382812 -0.14890625 5.21171875 -0.125 4.375 C-0.10695312 3.55773437 -0.08890625 2.74046875 -0.0703125 1.8984375 C-0.04710937 1.27195312 -0.02390625 0.64546875 0 0 Z " fill="#0FAAFA" transform="translate(202,89)"/>
<path d="M0 0 C0.66 0 1.32 0 2 0 C2.33 2.64 2.66 5.28 3 8 C3.66 8 4.32 8 5 8 C5.33 5.36 5.66 2.72 6 0 C6.66 0 7.32 0 8 0 C8.02688151 1.64574566 8.04634123 3.29161413 8.0625 4.9375 C8.07410156 5.85402344 8.08570313 6.77054687 8.09765625 7.71484375 C8 10 8 10 7 11 C4.5625 11.1875 4.5625 11.1875 2 11 C0 9 0 9 -0.1953125 6.8359375 C-0.17210938 6.02382812 -0.14890625 5.21171875 -0.125 4.375 C-0.10695313 3.55773437 -0.08890625 2.74046875 -0.0703125 1.8984375 C-0.04710938 1.27195312 -0.02390625 0.64546875 0 0 Z " fill="#0FAAFA" transform="translate(124,89)"/>
<path d="M0 0 C0.66 0 1.32 0 2 0 C2.33 2.64 2.66 5.28 3 8 C3.66 8 4.32 8 5 8 C5.33 5.36 5.66 2.72 6 0 C6.66 0 7.32 0 8 0 C8.02688151 1.64574566 8.04634123 3.29161413 8.0625 4.9375 C8.07410156 5.85402344 8.08570312 6.77054687 8.09765625 7.71484375 C8 10 8 10 7 11 C4.5625 11.1875 4.5625 11.1875 2 11 C0 9 0 9 -0.1953125 6.8359375 C-0.17210938 6.02382812 -0.14890625 5.21171875 -0.125 4.375 C-0.10695313 3.55773437 -0.08890625 2.74046875 -0.0703125 1.8984375 C-0.04710938 1.27195312 -0.02390625 0.64546875 0 0 Z " fill="#0FAAFA" transform="translate(96,89)"/>
<path d="M0 0 C2.31 0 4.62 0 7 0 C7 0.66 7 1.32 7 2 C5.35 2 3.7 2 2 2 C2 2.99 2 3.98 2 5 C3.32 5.33 4.64 5.66 6 6 C4.68 6 3.36 6 2 6 C2 6.99 2 7.98 2 9 C3.65 9 5.3 9 7 9 C7 9.66 7 10.32 7 11 C4.69 11 2.38 11 0 11 C0 7.37 0 3.74 0 0 Z " fill="#0AA8FA" transform="translate(115,89)"/>
<path d="M0 0 C2.31 0 4.62 0 7 0 C7 0.66 7 1.32 7 2 C5.35 2 3.7 2 2 2 C2 2.99 2 3.98 2 5 C3.32 5 4.64 5 6 5 C6 5.66 6 6.32 6 7 C4.68 7 3.36 7 2 7 C2 8.32 2 9.64 2 11 C1.34 11 0.68 11 0 11 C0 7.37 0 3.74 0 0 Z " fill="#12ABFA" transform="translate(161,89)"/>
<path d="M0 0 C2.31 0 4.62 0 7 0 C7 0.66 7 1.32 7 2 C5.35 2 3.7 2 2 2 C2 2.99 2 3.98 2 5 C3.32 5 4.64 5 6 5 C6 5.66 6 6.32 6 7 C4.68 7 3.36 7 2 7 C2 8.32 2 9.64 2 11 C1.34 11 0.68 11 0 11 C0 7.37 0 3.74 0 0 Z " fill="#12ABFA" transform="translate(22,89)"/>
<path d="M0 0 C0.99 0 1.98 0 3 0 C3.66 0.99 4.32 1.98 5 3 C5.66 2.01 6.32 1.02 7 0 C7.66 0 8.32 0 9 0 C8.01 3.63 7.02 7.26 6 11 C5.34 11 4.68 11 4 11 C3.71125 10.113125 3.4225 9.22625 3.125 8.3125 C2.16851252 5.49617576 1.13201054 2.74916844 0 0 Z " fill="#25B2FA" transform="translate(296,89)"/>
<path d="M0 0 C0.99 0 1.98 0 3 0 C3 3.63 3 7.26 3 11 C2.01 11 1.02 11 0 11 C0 7.37 0 3.74 0 0 Z " fill="#42BBFB" transform="translate(255,89)"/>
<path d="M0 0 C0.99 0 1.98 0 3 0 C3 3.63 3 7.26 3 11 C2.01 11 1.02 11 0 11 C0 7.37 0 3.74 0 0 Z " fill="#42BBFB" transform="translate(57,89)"/>
<path d="M0 0 C0.99 0 1.98 0 3 0 C3 3.63 3 7.26 3 11 C2.01 11 1.02 11 0 11 C0 7.37 0 3.74 0 0 Z " fill="#42BBFB" transform="translate(31,89)"/>
<path d="M0 0 C0.66 0 1.32 0 2 0 C2 2.97 2 5.94 2 9 C3.65 9 5.3 9 7 9 C7 9.66 7 10.32 7 11 C4.69 11 2.38 11 0 11 C0 7.37 0 3.74 0 0 Z " fill="#08A7FA" transform="translate(233,89)"/>
<path d="M0 0 C2.31 0 4.62 0 7 0 C7 0.66 7 1.32 7 2 C6.01 2 5.02 2 4 2 C4 4.97 4 7.94 4 11 C3.34 11 2.68 11 2 11 C2 8.03 2 5.06 2 2 C1.34 2 0.68 2 0 2 C0 1.34 0 0.68 0 0 Z " fill="#20B0FA" transform="translate(193,89)"/>
<path d="M0 0 C1.32 0.33 2.64 0.66 4 1 C4 1.66 4 2.32 4 3 C4.66 3.33 5.32 3.66 6 4 C5.67 4.66 5.34 5.32 5 6 C5.33 6.99 5.66 7.98 6 9 C5.01 9 4.02 9 3 9 C0.50022457 5.66696609 0 4.26696398 0 0 Z " fill="#60C7FB" transform="translate(290,91)"/>
<path d="M0 0 C1.32 0.33 2.64 0.66 4 1 C4 1.66 4 2.32 4 3 C4.66 3.33 5.32 3.66 6 4 C5.67 4.66 5.34 5.32 5 6 C5.33 6.99 5.66 7.98 6 9 C5.01 9 4.02 9 3 9 C0.50022457 5.66696609 0 4.26696398 0 0 Z " fill="#60C7FB" transform="translate(214,91)"/>
<path d="M0 0 C2.0625 0.4375 2.0625 0.4375 4 1 C4 2.65 4 4.3 4 6 C2.0625 6.5625 2.0625 6.5625 0 7 C-1 6 -1 6 -1.125 3.5 C-1 1 -1 1 0 0 Z " fill="#E9F7FE" transform="translate(279,91)"/>
<path d="M0 0 C2.0625 0.4375 2.0625 0.4375 4 1 C4 2.65 4 4.3 4 6 C2.0625 6.5625 2.0625 6.5625 0 7 C-1 6 -1 6 -1.125 3.5 C-1 1 -1 1 0 0 Z " fill="#E9F7FE" transform="translate(152,91)"/>
<path d="M0 0 C1.98 0.99 1.98 0.99 4 2 C4.33 2.99 4.66 3.98 5 5 C4.01 5.495 4.01 5.495 3 6 C2.34444881 8.52733235 2.34444881 8.52733235 2 11 C1.34 11 0.68 11 0 11 C0 7.37 0 3.74 0 0 Z " fill="#09A8FA" transform="translate(173,89)"/>
<path d="M0 0 C1.98 0.99 1.98 0.99 4 2 C4.33 2.99 4.66 3.98 5 5 C4.01 5.495 4.01 5.495 3 6 C2.34444881 8.52733235 2.34444881 8.52733235 2 11 C1.34 11 0.68 11 0 11 C0 7.37 0 3.74 0 0 Z " fill="#09A8FA" transform="translate(46,89)"/>
<path d="M0 0 C1.98 0.99 1.98 0.99 4 2 C4.33 2.99 4.66 3.98 5 5 C4.01 5.495 4.01 5.495 3 6 C2.34444881 8.52733235 2.34444881 8.52733235 2 11 C1.34 11 0.68 11 0 11 C0 7.37 0 3.74 0 0 Z " fill="#09A8FA" transform="translate(35,89)"/>
<path d="M0 0 C0.99 0 1.98 0 3 0 C3.33 1.65 3.66 3.3 4 5 C3.34 5 2.68 5 2 5 C2 6.98 2 8.96 2 11 C1.34 11 0.68 11 0 11 C0 7.37 0 3.74 0 0 Z " fill="#0DA9FA" transform="translate(134,89)"/>
<path d="M0 0 C0.99 0 1.98 0 3 0 C3.33 1.65 3.66 3.3 4 5 C3.34 5 2.68 5 2 5 C2 6.98 2 8.96 2 11 C1.34 11 0.68 11 0 11 C0 7.37 0 3.74 0 0 Z " fill="#0DA9FA" transform="translate(84,89)"/>
<path d="M0 0 C2.3125 -0.25 2.3125 -0.25 5 0 C6.875 1.8125 6.875 1.8125 8 4 C7.67 4.99 7.34 5.98 7 7 C6.34 7 5.68 7 5 7 C4.67 5.68 4.34 4.36 4 3 C2.02 3.33 0.04 3.66 -2 4 C-1.34 2.68 -0.68 1.36 0 0 Z " fill="#23B1FA" transform="translate(278,89)"/>
<path d="M0 0 C2.3125 -0.25 2.3125 -0.25 5 0 C6.875 1.8125 6.875 1.8125 8 4 C7.67 4.99 7.34 5.98 7 7 C6.34 7 5.68 7 5 7 C4.67 5.68 4.34 4.36 4 3 C2.02 3.33 0.04 3.66 -2 4 C-1.34 2.68 -0.68 1.36 0 0 Z " fill="#23B1FA" transform="translate(151,89)"/>
<path d="M0 0 C2 2 2 2 3 4.0625 C3.84589942 6.16865601 3.84589942 6.16865601 6 7 C6 7.66 6 8.32 6 9 C4.35 9.33 2.7 9.66 1 10 C-0.60725635 6.78548731 -0.05748185 3.56387464 0 0 Z " fill="#D8F1FE" transform="translate(104,89)"/>
<path d="M0 0 C0.66 0 1.32 0 2 0 C2 1.65 2 3.3 2 5 C2.99 5.33 3.98 5.66 5 6 C4.01 6 3.02 6 2 6 C2 7.65 2 9.3 2 11 C1.34 11 0.68 11 0 11 C0 7.37 0 3.74 0 0 Z " fill="#05A6FA" transform="translate(244,89)"/>
<path d="M0 0 C0.66 0 1.32 0 2 0 C2 1.65 2 3.3 2 5 C2.99 5.33 3.98 5.66 5 6 C4.01 6 3.02 6 2 6 C2 7.65 2 9.3 2 11 C1.34 11 0.68 11 0 11 C0 7.37 0 3.74 0 0 Z " fill="#05A6FA" transform="translate(70,89)"/>
<path d="M0 0 C0.66 0 1.32 0 2 0 C2.433125 0.9590625 2.433125 0.9590625 2.875 1.9375 C3.82823451 4.15206079 3.82823451 4.15206079 6 5 C6 5.66 6 6.32 6 7 C4.35 7.33 2.7 7.66 1 8 C-0.35439668 5.29120665 -0.06501451 2.99066732 0 0 Z " fill="#EAF7FE" transform="translate(258,91)"/>
<path d="M0 0 C0.66 0 1.32 0 2 0 C2.433125 0.9590625 2.433125 0.9590625 2.875 1.9375 C3.82823451 4.15206079 3.82823451 4.15206079 6 5 C6 5.66 6 6.32 6 7 C4.35 7.33 2.7 7.66 1 8 C-0.35439668 5.29120665 -0.06501451 2.99066732 0 0 Z " fill="#EAF7FE" transform="translate(60,91)"/>
<path d="M0 0 C0.99 0.33 1.98 0.66 3 1 C3.6875 3.0625 3.6875 3.0625 4 5 C2.02 5.99 2.02 5.99 0 7 C-0.38133299 5.0085944 -0.71325582 3.00720923 -1 1 C-0.67 0.67 -0.34 0.34 0 0 Z " fill="#4BBFFB" transform="translate(225,89)"/>
<path d="M0 0 C0.99 0.33 1.98 0.66 3 1 C3.6875 3.0625 3.6875 3.0625 4 5 C2.02 5.99 2.02 5.99 0 7 C-0.38133299 5.0085944 -0.71325582 3.00720923 -1 1 C-0.67 0.67 -0.34 0.34 0 0 Z " fill="#4BBFFB" transform="translate(187,89)"/>
<path d="M0 0 C1.98 0 3.96 0 6 0 C6 1.32 6 2.64 6 4 C4.02 3.34 2.04 2.68 0 2 C0 1.34 0 0.68 0 0 Z " fill="#ECF8FE" transform="translate(64,91)"/>
</svg>
